<?xml version="1.0" encoding="UTF-8"?>
<svg xmlns="http://www.w3.org/2000/svg" xmlns:xlink="http://www.w3.org/1999/xlink" width="112pt" height="65pt" viewBox="0 0 112 65" version="1.1">
<g id="surface1">
<path style=" stroke:none;fill-rule:nonzero;fill:rgb(0%,0%,0%);fill-opacity:1;" d="M 51.050781 1.25 C 49.957031 1.5 47.746094 2.625 47 3.324219 C 46.648438 3.625 46.003906 4.324219 45.53125 4.875 L 44.660156 5.875 L 42.296875 6 C 40.410156 6.125 39.613281 6.273438 38.46875 6.824219 C 36.628906 7.699219 34.714844 9.601562 33.867188 11.449219 C 33.273438 12.726562 33.195312 13.175781 33.195312 15.625 C 33.195312 18.175781 33.246094 18.476562 33.917969 19.75 C 34.292969 20.5 34.914062 21.449219 35.285156 21.824219 L 35.933594 22.523438 L 36.007812 35.023438 L 36.082031 47.5 L 37.796875 47.5 L 37.796875 35.875 C 37.796875 29.476562 37.871094 24.25 37.996094 24.25 C 38.097656 24.273438 38.792969 24.476562 39.539062 24.75 C 42.199219 25.699219 45.28125 25.300781 47.792969 23.699219 L 48.988281 22.949219 L 49.832031 23.699219 C 51.125 24.824219 52.667969 25.324219 54.507812 25.199219 C 56.296875 25.074219 57.617188 24.523438 58.859375 23.324219 L 59.753906 22.5 L 60.875 22.898438 C 61.496094 23.101562 62.839844 23.273438 63.808594 23.273438 C 65.226562 23.273438 65.746094 23.375 66.246094 23.773438 C 67.140625 24.476562 68.90625 25.25 69.703125 25.25 L 70.371094 25.25 L 70.371094 47.5 L 71.34375 47.5 C 72.113281 47.5 72.335938 47.601562 72.410156 47.976562 C 72.488281 48.398438 72.5625 48.425781 73.855469 48.101562 C 79.078125 46.773438 83.378906 42.425781 84.570312 37.25 C 84.996094 35.398438 84.945312 32.199219 84.449219 30.25 C 83.601562 26.976562 81.140625 23.574219 78.28125 21.773438 L 76.9375 20.898438 L 77.039062 19 C 77.113281 17.851562 77.039062 16.699219 76.863281 16.175781 C 76.515625 15.148438 74.574219 12.851562 73.855469 12.625 C 73.554688 12.523438 73.234375 11.925781 72.882812 10.800781 C 71.667969 6.800781 67.910156 4 63.808594 4 C 62.960938 4 61.917969 4.101562 61.445312 4.25 C 60.675781 4.476562 60.527344 4.398438 59.507812 3.523438 C 57.195312 1.449219 53.863281 0.574219 51.050781 1.25 Z M 56.597656 3.824219 C 57.292969 4.175781 58.335938 5 58.910156 5.648438 C 59.878906 6.75 59.980469 6.800781 60.601562 6.523438 C 62.6875 5.574219 65.523438 5.726562 67.5625 6.898438 C 69.601562 8.101562 71.367188 10.800781 71.367188 12.773438 C 71.367188 13.324219 71.589844 13.574219 72.710938 14.199219 C 74.921875 15.476562 75.867188 18 74.972656 20.199219 C 73.605469 23.476562 69.703125 24.273438 67.089844 21.800781 C 66.445312 21.226562 66.21875 21.175781 63.957031 21.148438 C 61.820312 21.125 61.371094 21.050781 60.226562 20.449219 L 58.933594 19.773438 L 58.335938 20.699219 C 57.589844 21.875 56.769531 22.648438 55.875 22.976562 C 54.78125 23.398438 53.039062 23.300781 51.996094 22.75 C 51.125 22.324219 49.734375 20.949219 49.734375 20.550781 C 49.734375 20.449219 49.632812 20.226562 49.511719 20.023438 C 49.335938 19.75 49.011719 19.949219 48.019531 20.949219 C 45.082031 23.898438 40.582031 24.074219 37.550781 21.324219 C 35.660156 19.625 34.960938 18.101562 34.960938 15.625 C 34.9375 13.925781 35.039062 13.398438 35.632812 12.199219 C 36.429688 10.574219 37.871094 9.148438 39.511719 8.425781 C 40.757812 7.875 43.21875 7.726562 44.785156 8.074219 C 45.679688 8.300781 45.679688 8.273438 46.449219 6.925781 C 47.320312 5.375 48.714844 4.175781 50.429688 3.476562 C 52.121094 2.773438 54.882812 2.949219 56.597656 3.824219 Z M 77.359375 23.449219 C 79.898438 25.101562 82.136719 28.351562 82.78125 31.449219 C 84.074219 37.601562 80.417969 43.875 74.375 45.925781 C 73.480469 46.226562 72.660156 46.398438 72.5625 46.351562 C 72.460938 46.273438 72.363281 41.449219 72.363281 35.625 L 72.363281 25.050781 L 73.429688 24.523438 C 74.027344 24.226562 74.773438 23.726562 75.097656 23.375 C 75.84375 22.574219 75.992188 22.601562 77.359375 23.449219 Z M 77.359375 23.449219 "/>
<path style=" stroke:none;fill-rule:nonzero;fill:rgb(0%,0%,0%);fill-opacity:1;" d="M 40.78125 11.199219 C 39.785156 11.699219 38.792969 13.050781 38.792969 13.898438 C 38.792969 14.425781 38.917969 14.5 39.664062 14.5 C 40.285156 14.5 40.609375 14.375 40.707031 14.050781 C 40.957031 13.351562 41.578125 12.75 42.074219 12.75 C 42.421875 12.75 42.523438 12.550781 42.523438 11.75 C 42.523438 10.601562 42.175781 10.476562 40.78125 11.199219 Z M 40.78125 11.199219 "/>
<path style=" stroke:none;fill-rule:nonzero;fill:rgb(0%,0%,0%);fill-opacity:1;" d="M 39.539062 36.875 L 39.539062 47.5 L 41.527344 47.5 L 41.527344 26.25 L 39.539062 26.25 Z M 39.539062 36.875 "/>
<path style=" stroke:none;fill-rule:nonzero;fill:rgb(0%,0%,0%);fill-opacity:1;" d="M 43.515625 36.875 L 43.515625 47.5 L 45.507812 47.5 L 45.507812 26.25 L 43.515625 26.25 Z M 43.515625 36.875 "/>
<path style=" stroke:none;fill-rule:nonzero;fill:rgb(0%,0%,0%);fill-opacity:1;" d="M 47.246094 39.5 L 47.246094 52.75 L 49.234375 52.75 L 49.234375 26.25 L 47.246094 26.25 Z M 47.246094 39.5 "/>
<path style=" stroke:none;fill-rule:nonzero;fill:rgb(0%,0%,0%);fill-opacity:1;" d="M 51.226562 39.824219 C 51.226562 47.300781 51.152344 54.300781 51.050781 55.375 L 50.902344 57.300781 L 51.671875 56.898438 C 53.265625 56.074219 53.214844 56.476562 53.214844 40.625 L 53.214844 26.25 L 51.226562 26.25 Z M 51.226562 39.824219 "/>
<path style=" stroke:none;fill-rule:nonzero;fill:rgb(0%,0%,0%);fill-opacity:1;" d="M 55.003906 40.898438 L 55.078125 55.550781 L 56.023438 56.425781 C 56.546875 56.898438 56.996094 57.25 57.019531 57.199219 C 57.042969 57.175781 57.042969 50.175781 56.996094 41.675781 L 56.894531 26.25 L 54.957031 26.25 Z M 55.003906 40.898438 "/>
<path style=" stroke:none;fill-rule:nonzero;fill:rgb(0%,0%,0%);fill-opacity:1;" d="M 58.933594 39.5 L 58.933594 52.75 L 60.921875 52.75 L 60.921875 26.25 L 58.933594 26.25 Z M 58.933594 39.5 "/>
<path style=" stroke:none;fill-rule:nonzero;fill:rgb(0%,0%,0%);fill-opacity:1;" d="M 62.664062 36.875 L 62.664062 47.5 L 64.652344 47.5 L 64.652344 26.25 L 62.664062 26.25 Z M 62.664062 36.875 "/>
<path style=" stroke:none;fill-rule:nonzero;fill:rgb(0%,0%,0%);fill-opacity:1;" d="M 66.644531 36.875 L 66.644531 47.5 L 68.632812 47.5 L 68.632812 26.25 L 66.644531 26.25 Z M 66.644531 36.875 "/>
</g>
</svg>
