<?xml version="1.0" encoding="UTF-8"?>
<svg xmlns="http://www.w3.org/2000/svg" xmlns:xlink="http://www.w3.org/1999/xlink" width="100pt" height="58pt" viewBox="0 0 100 58" version="1.1">
<g id="surface1">
<path style=" stroke:none;fill-rule:nonzero;fill:rgb(0%,0%,0%);fill-opacity:1;" d="M 44.050781 1.605469 C 43.324219 1.957031 42.050781 2.933594 41.226562 3.761719 C 39.699219 5.269531 39.699219 5.269531 38.226562 5.269531 C 36.625 5.269531 34.5 5.695312 34.5 6.019531 C 34.5 6.121094 34.25 6.273438 33.925781 6.371094 C 32.898438 6.621094 31.074219 8.480469 30.351562 9.960938 C 29.800781 11.089844 29.625 11.816406 29.550781 13.523438 C 29.449219 15.503906 29.5 15.828125 30.175781 17.308594 C 30.601562 18.210938 31.175781 19.167969 31.449219 19.417969 C 32 19.894531 32 19.945312 32 31.15625 L 32 42.394531 L 34 42.394531 L 34 21.824219 L 34.925781 22.203125 C 37.199219 23.15625 40.226562 22.855469 42.699219 21.398438 C 43.726562 20.820312 43.800781 20.796875 44.273438 21.199219 C 44.523438 21.449219 44.699219 21.726562 44.625 21.800781 C 44.574219 21.902344 44.726562 21.976562 44.949219 22 C 45.175781 22.027344 45.824219 22.203125 46.375 22.425781 C 46.925781 22.628906 47.800781 22.804688 48.300781 22.828125 C 49.574219 22.828125 51.675781 22 52.601562 21.097656 L 53.375 20.34375 L 54.75 20.722656 C 55.5 20.921875 56.726562 21.074219 57.449219 21.046875 C 58.476562 20.996094 58.875 21.097656 59.324219 21.523438 C 59.625 21.800781 60.523438 22.25 61.324219 22.476562 L 62.75 22.929688 L 62.75 42.394531 L 63.625 42.394531 C 64.175781 42.394531 64.550781 42.546875 64.726562 42.824219 C 64.949219 43.222656 65.050781 43.222656 66.425781 42.796875 C 71.925781 41.089844 75.523438 36.625 75.925781 30.980469 C 76.25 26.617188 73.699219 21.625 70.050781 19.441406 L 68.800781 18.6875 L 68.925781 16.933594 C 69.023438 15.351562 68.976562 15.027344 68.324219 13.796875 C 67.898438 12.96875 67.226562 12.117188 66.601562 11.664062 C 65.875 11.136719 65.5 10.613281 65.300781 9.910156 C 64.550781 7.226562 62.300781 4.867188 59.523438 3.886719 C 58.25 3.460938 55.851562 3.386719 54.851562 3.761719 C 54.25 4.015625 54.074219 3.9375 53.273438 3.160156 C 51.699219 1.65625 50.425781 1.179688 47.75 1.078125 C 45.625 0.976562 45.25 1.054688 44.050781 1.605469 Z M 50.824219 3.585938 C 51.449219 3.964844 52.300781 4.667969 52.726562 5.191406 L 53.476562 6.097656 L 54.898438 5.644531 C 58.898438 4.390625 63 6.898438 63.699219 11.089844 C 63.824219 11.714844 64.074219 12.21875 64.375 12.394531 C 65.800781 13.171875 66.5 13.871094 66.875 14.925781 C 67.425781 16.355469 67.25 17.8125 66.375 18.941406 C 64.800781 21.046875 62.074219 21.273438 60.050781 19.46875 C 59.199219 18.714844 59.050781 18.664062 58.125 18.863281 C 56.800781 19.167969 55.300781 18.914062 53.824219 18.1875 C 53.175781 17.835938 52.601562 17.5625 52.574219 17.5625 C 52.574219 17.5625 52.25 18.0625 51.898438 18.664062 C 50.375 21.296875 46.476562 21.324219 44.800781 18.714844 C 44.449219 18.136719 44.125 17.636719 44.074219 17.585938 C 44.050781 17.535156 43.398438 18.0625 42.625 18.765625 C 39.925781 21.25 36.25 21.324219 33.601562 18.992188 C 32.148438 17.710938 31.476562 16.332031 31.300781 14.398438 C 31.074219 11.414062 32.398438 9.105469 35.148438 7.75 C 36.601562 7.023438 36.898438 6.972656 38.300781 7.097656 C 39.175781 7.175781 40.101562 7.300781 40.375 7.375 C 40.773438 7.5 41.023438 7.273438 41.625 6.222656 C 43.050781 3.738281 45 2.683594 47.898438 2.835938 C 49.273438 2.910156 49.949219 3.085938 50.824219 3.585938 Z M 69.273438 21.023438 C 70.773438 22 72.148438 23.632812 73.050781 25.539062 C 75.625 30.933594 73.226562 37.730469 67.875 40.238281 C 66.925781 40.714844 65.824219 41.167969 65.449219 41.242188 L 64.75 41.394531 L 64.75 22.328125 L 65.699219 21.851562 C 66.199219 21.597656 66.851562 21.148438 67.101562 20.847656 C 67.726562 20.167969 67.925781 20.167969 69.273438 21.023438 Z M 69.273438 21.023438 "/>
<path style=" stroke:none;fill-rule:nonzero;fill:rgb(0%,0%,0%);fill-opacity:1;" d="M 36.300781 10.035156 C 35.425781 10.5625 34.5 11.890625 34.5 12.59375 C 34.5 12.945312 34.699219 13.046875 35.375 13.046875 C 36.101562 13.046875 36.300781 12.917969 36.5 12.417969 C 36.625 12.066406 37.023438 11.664062 37.375 11.488281 C 37.851562 11.265625 38 11.011719 38 10.359375 C 38 9.382812 37.550781 9.28125 36.300781 10.035156 Z M 36.300781 10.035156 "/>
<path style=" stroke:none;fill-rule:nonzero;fill:rgb(0%,0%,0%);fill-opacity:1;" d="M 35.25 32.585938 C 35.25 39.960938 35.175781 42.121094 34.949219 42.21875 C 34.773438 42.296875 35.25 42.371094 36 42.371094 L 37.375 42.394531 L 37.300781 32.738281 L 37.25 23.078125 L 35.25 23.078125 Z M 35.25 32.585938 "/>
<path style=" stroke:none;fill-rule:nonzero;fill:rgb(0%,0%,0%);fill-opacity:1;" d="M 38.75 32.710938 L 38.75 42.394531 L 41 42.394531 L 40.949219 32.789062 L 40.875 23.203125 L 39.824219 23.128906 L 38.75 23.054688 Z M 38.75 32.710938 "/>
<path style=" stroke:none;fill-rule:nonzero;fill:rgb(0%,0%,0%);fill-opacity:1;" d="M 42.175781 23.253906 C 41.949219 23.457031 41.949219 39.007812 42.175781 43.476562 L 42.324219 46.910156 L 44.25 46.910156 L 44.25 23.078125 L 43.300781 23.078125 C 42.773438 23.078125 42.25 23.15625 42.175781 23.253906 Z M 42.175781 23.253906 "/>
<path style=" stroke:none;fill-rule:nonzero;fill:rgb(0%,0%,0%);fill-opacity:1;" d="M 45.5 37.128906 C 45.5 47.1875 45.574219 51.175781 45.773438 51.175781 C 45.925781 51.175781 46.425781 50.800781 46.898438 50.324219 L 47.75 49.46875 L 47.75 23.078125 L 45.5 23.078125 Z M 45.5 37.128906 "/>
<path style=" stroke:none;fill-rule:nonzero;fill:rgb(0%,0%,0%);fill-opacity:1;" d="M 49 36.273438 L 49 49.496094 L 50 50.449219 C 50.898438 51.328125 51 51.527344 51 52.65625 L 51 53.910156 L 48.199219 54.011719 L 45.375 54.085938 L 48.273438 54.136719 L 51.175781 54.1875 L 51.074219 38.683594 L 50.949219 23.203125 L 49.976562 23.128906 L 49 23.054688 Z M 49 36.273438 "/>
<path style=" stroke:none;fill-rule:nonzero;fill:rgb(0%,0%,0%);fill-opacity:1;" d="M 52.5 35.097656 L 52.5 47.164062 L 54.449219 47.164062 L 54.625 42.347656 C 54.699219 39.6875 54.75 34.292969 54.699219 30.355469 L 54.625 23.203125 L 53.574219 23.128906 L 52.5 23.054688 Z M 52.5 35.097656 "/>
<path style=" stroke:none;fill-rule:nonzero;fill:rgb(0%,0%,0%);fill-opacity:1;" d="M 55.925781 23.253906 C 55.824219 23.332031 55.75 27.695312 55.75 32.914062 L 55.75 42.394531 L 58 42.394531 L 58 23.078125 L 57.050781 23.078125 C 56.523438 23.078125 56 23.15625 55.925781 23.253906 Z M 55.925781 23.253906 "/>
<path style=" stroke:none;fill-rule:nonzero;fill:rgb(0%,0%,0%);fill-opacity:1;" d="M 59.425781 23.253906 C 59.324219 23.332031 59.25 27.695312 59.25 32.914062 L 59.25 42.394531 L 61.5 42.394531 L 61.5 23.078125 L 60.550781 23.078125 C 60.023438 23.078125 59.5 23.15625 59.425781 23.253906 Z M 59.425781 23.253906 "/>
</g>
</svg>
